<svg width="23" height="13" viewBox="0 0 23 13" fill="none" xmlns="http://www.w3.org/2000/svg">
<path d="M10.7754 2.33887H6.85547V13H4.21875V2.33887H0.351562V0.203125H10.7754V2.33887ZM14.9238 8.49121V13H12.2871V0.203125H17.2793C18.2402 0.203125 19.084 0.378906 19.8105 0.730469C20.543 1.08203 21.1055 1.58301 21.498 2.2334C21.8906 2.87793 22.0869 3.61328 22.0869 4.43945C22.0869 5.69336 21.6562 6.68359 20.7949 7.41016C19.9395 8.13086 18.7529 8.49121 17.2354 8.49121H14.9238ZM14.9238 6.35547H17.2793C17.9766 6.35547 18.5068 6.19141 18.8701 5.86328C19.2393 5.53516 19.4238 5.06641 19.4238 4.45703C19.4238 3.83008 19.2393 3.32324 18.8701 2.93652C18.501 2.5498 17.9912 2.35059 17.3408 2.33887H14.9238V6.35547Z" fill="#DEDEDE"/>
</svg>
