<svg width="107" height="14" viewBox="0 0 107 14" fill="none" xmlns="http://www.w3.org/2000/svg">
<path d="M10.7754 2.33887H6.85547V13H4.21875V2.33887H0.351562V0.203125H10.7754V2.33887ZM19.9863 7.4541H14.9238V10.8818H20.8652V13H12.2871V0.203125H20.8477V2.33887H14.9238V5.38867H19.9863V7.4541ZM32.458 8.7373C32.3584 10.1143 31.8486 11.1982 30.9287 11.9893C30.0146 12.7803 28.8076 13.1758 27.3076 13.1758C25.667 13.1758 24.375 12.625 23.4316 11.5234C22.4941 10.416 22.0254 8.89844 22.0254 6.9707V6.18848C22.0254 4.95801 22.2422 3.87402 22.6758 2.93652C23.1094 1.99902 23.7275 1.28125 24.5303 0.783203C25.3389 0.279297 26.2764 0.0273438 27.3428 0.0273438C28.8193 0.0273438 30.0088 0.422852 30.9111 1.21387C31.8135 2.00488 32.335 3.11523 32.4756 4.54492H29.8389C29.7744 3.71875 29.543 3.12109 29.1445 2.75195C28.752 2.37695 28.1514 2.18945 27.3428 2.18945C26.4639 2.18945 25.8047 2.50586 25.3652 3.13867C24.9316 3.76562 24.709 4.74121 24.6973 6.06543V7.03223C24.6973 8.41504 24.9053 9.42578 25.3213 10.0645C25.7432 10.7031 26.4053 11.0225 27.3076 11.0225C28.1221 11.0225 28.7285 10.8379 29.127 10.4688C29.5312 10.0938 29.7627 9.5166 29.8213 8.7373H32.458ZM44.6045 13H41.9678V7.51562H36.8262V13H34.1895V0.203125H36.8262V5.38867H41.9678V0.203125H44.6045V13ZM54.0352 8.49121V13H51.3984V0.203125H56.3906C57.3516 0.203125 58.1953 0.378906 58.9219 0.730469C59.6543 1.08203 60.2168 1.58301 60.6094 2.2334C61.002 2.87793 61.1982 3.61328 61.1982 4.43945C61.1982 5.69336 60.7676 6.68359 59.9062 7.41016C59.0508 8.13086 57.8643 8.49121 56.3467 8.49121H54.0352ZM54.0352 6.35547H56.3906C57.0879 6.35547 57.6182 6.19141 57.9814 5.86328C58.3506 5.53516 58.5352 5.06641 58.5352 4.45703C58.5352 3.83008 58.3506 3.32324 57.9814 2.93652C57.6123 2.5498 57.1025 2.35059 56.4521 2.33887H54.0352V6.35547ZM73.5293 6.8916C73.5293 8.15137 73.3066 9.25586 72.8613 10.2051C72.416 11.1543 71.7773 11.8867 70.9453 12.4023C70.1191 12.918 69.1699 13.1758 68.0977 13.1758C67.0371 13.1758 66.0908 12.9209 65.2588 12.4111C64.4268 11.9014 63.7822 11.1748 63.3252 10.2314C62.8682 9.28223 62.6367 8.19238 62.6309 6.96191V6.3291C62.6309 5.06934 62.8564 3.96191 63.3076 3.00684C63.7646 2.0459 64.4062 1.31055 65.2324 0.800781C66.0645 0.285156 67.0137 0.0273438 68.0801 0.0273438C69.1465 0.0273438 70.0928 0.285156 70.9189 0.800781C71.751 1.31055 72.3926 2.0459 72.8438 3.00684C73.3008 3.96191 73.5293 5.06641 73.5293 6.32031V6.8916ZM70.8574 6.31152C70.8574 4.96973 70.6172 3.9502 70.1367 3.25293C69.6562 2.55566 68.9707 2.20703 68.0801 2.20703C67.1953 2.20703 66.5127 2.55273 66.0322 3.24414C65.5518 3.92969 65.3086 4.9375 65.3027 6.26758V6.8916C65.3027 8.19824 65.543 9.21191 66.0234 9.93262C66.5039 10.6533 67.1953 11.0137 68.0977 11.0137C68.9824 11.0137 69.6621 10.668 70.1367 9.97656C70.6113 9.2793 70.8516 8.26562 70.8574 6.93555V6.31152ZM82.0811 9.64258C82.0811 9.14453 81.9053 8.76367 81.5537 8.5C81.2021 8.23047 80.5693 7.94922 79.6553 7.65625C78.7412 7.35742 78.0176 7.06445 77.4844 6.77734C76.0312 5.99219 75.3047 4.93457 75.3047 3.60449C75.3047 2.91309 75.498 2.29785 75.8848 1.75879C76.2773 1.21387 76.8369 0.789063 77.5635 0.484375C78.2959 0.179687 79.1162 0.0273438 80.0244 0.0273438C80.9385 0.0273438 81.7529 0.194336 82.4678 0.52832C83.1826 0.856445 83.7363 1.32227 84.1289 1.92578C84.5273 2.5293 84.7266 3.21484 84.7266 3.98242H82.0898C82.0898 3.39648 81.9053 2.94238 81.5361 2.62012C81.167 2.29199 80.6484 2.12793 79.9805 2.12793C79.3359 2.12793 78.835 2.26563 78.4775 2.54102C78.1201 2.81055 77.9414 3.16797 77.9414 3.61328C77.9414 4.0293 78.1494 4.37793 78.5654 4.65918C78.9873 4.94043 79.6055 5.2041 80.4199 5.4502C81.9199 5.90137 83.0127 6.46094 83.6982 7.12891C84.3838 7.79688 84.7266 8.62891 84.7266 9.625C84.7266 10.7324 84.3076 11.6025 83.4697 12.2354C82.6318 12.8623 81.5039 13.1758 80.0859 13.1758C79.1016 13.1758 78.2051 12.9971 77.3965 12.6396C76.5879 12.2764 75.9697 11.7812 75.542 11.1543C75.1201 10.5273 74.9092 9.80078 74.9092 8.97461H77.5547C77.5547 10.3867 78.3984 11.0928 80.0859 11.0928C80.7129 11.0928 81.2021 10.9668 81.5537 10.7148C81.9053 10.457 82.0811 10.0996 82.0811 9.64258ZM96.1523 2.33887H92.2324V13H89.5957V2.33887H85.7285V0.203125H96.1523V2.33887ZM104.159 9.64258C104.159 9.14453 103.983 8.76367 103.632 8.5C103.28 8.23047 102.647 7.94922 101.733 7.65625C100.819 7.35742 100.096 7.06445 99.5625 6.77734C98.1094 5.99219 97.3828 4.93457 97.3828 3.60449C97.3828 2.91309 97.5762 2.29785 97.9629 1.75879C98.3555 1.21387 98.915 0.789063 99.6416 0.484375C100.374 0.179687 101.194 0.0273438 102.103 0.0273438C103.017 0.0273438 103.831 0.194336 104.546 0.52832C105.261 0.856445 105.814 1.32227 106.207 1.92578C106.605 2.5293 106.805 3.21484 106.805 3.98242H104.168C104.168 3.39648 103.983 2.94238 103.614 2.62012C103.245 2.29199 102.727 2.12793 102.059 2.12793C101.414 2.12793 100.913 2.26563 100.556 2.54102C100.198 2.81055 100.02 3.16797 100.02 3.61328C100.02 4.0293 100.228 4.37793 100.644 4.65918C101.065 4.94043 101.684 5.2041 102.498 5.4502C103.998 5.90137 105.091 6.46094 105.776 7.12891C106.462 7.79688 106.805 8.62891 106.805 9.625C106.805 10.7324 106.386 11.6025 105.548 12.2354C104.71 12.8623 103.582 13.1758 102.164 13.1758C101.18 13.1758 100.283 12.9971 99.4746 12.6396C98.666 12.2764 98.0479 11.7812 97.6201 11.1543C97.1982 10.5273 96.9873 9.80078 96.9873 8.97461H99.6328C99.6328 10.3867 100.477 11.0928 102.164 11.0928C102.791 11.0928 103.28 10.9668 103.632 10.7148C103.983 10.457 104.159 10.0996 104.159 9.64258Z" fill="#DEDEDE"/>
</svg>
