<svg width="157" height="18" viewBox="0 0 157 18" fill="none" xmlns="http://www.w3.org/2000/svg">
<path d="M6.30176 1.20312H8.93848V10.0625C8.93848 10.877 8.75684 11.5977 8.39355 12.2246C8.03613 12.8457 7.5293 13.3262 6.87305 13.666C6.2168 14.0059 5.47559 14.1758 4.64941 14.1758C3.2959 14.1758 2.24121 13.833 1.48535 13.1475C0.729492 12.4561 0.351562 11.4805 0.351562 10.2207H3.00586C3.00586 10.8477 3.1377 11.3105 3.40137 11.6094C3.66504 11.9082 4.08105 12.0576 4.64941 12.0576C5.15332 12.0576 5.55469 11.8848 5.85352 11.5391C6.15234 11.1934 6.30176 10.7012 6.30176 10.0625V1.20312ZM16.7256 13.0332C16.0986 13.7949 15.2314 14.1758 14.124 14.1758C13.1045 14.1758 12.3252 13.8828 11.7861 13.2969C11.2529 12.7109 10.9805 11.8525 10.9688 10.7217V4.49023H13.5088V10.6338C13.5088 11.624 13.96 12.1191 14.8623 12.1191C15.7236 12.1191 16.3154 11.8203 16.6377 11.2227V4.49023H19.1865V14H16.7959L16.7256 13.0332ZM26.6133 14C26.4961 13.7715 26.4111 13.4873 26.3584 13.1475C25.7432 13.833 24.9434 14.1758 23.959 14.1758C23.0273 14.1758 22.2539 13.9062 21.6387 13.3672C21.0293 12.8281 20.7246 12.1484 20.7246 11.3281C20.7246 10.3203 21.0967 9.54688 21.8408 9.00781C22.5908 8.46875 23.6719 8.19629 25.084 8.19043H26.2529V7.64551C26.2529 7.20605 26.1387 6.85449 25.9102 6.59082C25.6875 6.32715 25.333 6.19531 24.8467 6.19531C24.4189 6.19531 24.082 6.29785 23.8359 6.50293C23.5957 6.70801 23.4756 6.98926 23.4756 7.34668H20.9355C20.9355 6.7959 21.1055 6.28613 21.4453 5.81738C21.7852 5.34863 22.2656 4.98242 22.8867 4.71875C23.5078 4.44922 24.2051 4.31445 24.9785 4.31445C26.1504 4.31445 27.0791 4.61035 27.7646 5.20215C28.4561 5.78809 28.8018 6.61426 28.8018 7.68066V11.8027C28.8076 12.7051 28.9336 13.3877 29.1797 13.8506V14H26.6133ZM24.5127 12.2334C24.8877 12.2334 25.2334 12.1514 25.5498 11.9873C25.8662 11.8174 26.1006 11.5918 26.2529 11.3105V9.67578H25.3037C24.0322 9.67578 23.3555 10.1152 23.2734 10.9941L23.2646 11.1436C23.2646 11.46 23.376 11.7207 23.5986 11.9258C23.8213 12.1309 24.126 12.2334 24.5127 12.2334ZM33.0908 4.49023L33.1699 5.58887C33.8496 4.73926 34.7607 4.31445 35.9033 4.31445C36.9111 4.31445 37.6611 4.61035 38.1533 5.20215C38.6455 5.79395 38.8975 6.67871 38.9092 7.85645V14H36.3691V7.91797C36.3691 7.37891 36.252 6.98926 36.0176 6.74902C35.7832 6.50293 35.3936 6.37988 34.8486 6.37988C34.1338 6.37988 33.5977 6.68457 33.2402 7.29395V14H30.7002V4.49023H33.0908ZM48.1289 9.49121V14H45.4922V1.20312H50.4844C51.4453 1.20312 52.2891 1.37891 53.0156 1.73047C53.748 2.08203 54.3105 2.58301 54.7031 3.2334C55.0957 3.87793 55.292 4.61328 55.292 5.43945C55.292 6.69336 54.8613 7.68359 54 8.41016C53.1445 9.13086 51.958 9.49121 50.4404 9.49121H48.1289ZM48.1289 7.35547H50.4844C51.1816 7.35547 51.7119 7.19141 52.0752 6.86328C52.4443 6.53516 52.6289 6.06641 52.6289 5.45703C52.6289 4.83008 52.4443 4.32324 52.0752 3.93652C51.7061 3.5498 51.1963 3.35059 50.5459 3.33887H48.1289V7.35547ZM61.1982 14.1758C59.8037 14.1758 58.667 13.748 57.7881 12.8926C56.915 12.0371 56.4785 10.8975 56.4785 9.47363V9.22754C56.4785 8.27246 56.6631 7.41992 57.0322 6.66992C57.4014 5.91406 57.9229 5.33398 58.5967 4.92969C59.2764 4.51953 60.0498 4.31445 60.917 4.31445C62.2178 4.31445 63.2402 4.72461 63.9844 5.54492C64.7344 6.36523 65.1094 7.52832 65.1094 9.03418V10.0713H59.0537C59.1357 10.6924 59.3818 11.1904 59.792 11.5654C60.208 11.9404 60.7324 12.1279 61.3652 12.1279C62.3438 12.1279 63.1084 11.7734 63.6592 11.0645L64.9072 12.4619C64.5264 13.001 64.0107 13.4229 63.3604 13.7275C62.71 14.0264 61.9893 14.1758 61.1982 14.1758ZM60.9082 6.37109C60.4043 6.37109 59.9941 6.54102 59.6777 6.88086C59.3672 7.2207 59.168 7.70703 59.0801 8.33984H62.6133V8.1377C62.6016 7.5752 62.4492 7.1416 62.1562 6.83691C61.8633 6.52637 61.4473 6.37109 60.9082 6.37109ZM71.9033 6.87207C71.5576 6.8252 71.2529 6.80176 70.9893 6.80176C70.0283 6.80176 69.3984 7.12695 69.0996 7.77734V14H66.5596V4.49023H68.959L69.0293 5.62402C69.5391 4.75098 70.2451 4.31445 71.1475 4.31445C71.4287 4.31445 71.6924 4.35254 71.9385 4.42871L71.9033 6.87207ZM78.2842 11.3721C78.2842 11.0615 78.1289 10.8184 77.8184 10.6426C77.5137 10.4609 77.0215 10.2998 76.3418 10.1592C74.0801 9.68457 72.9492 8.72363 72.9492 7.27637C72.9492 6.43262 73.2979 5.72949 73.9951 5.16699C74.6982 4.59863 75.6152 4.31445 76.7461 4.31445C77.9531 4.31445 78.917 4.59863 79.6377 5.16699C80.3643 5.73535 80.7275 6.47363 80.7275 7.38184H78.1875C78.1875 7.01855 78.0703 6.71973 77.8359 6.48535C77.6016 6.24512 77.2354 6.125 76.7373 6.125C76.3096 6.125 75.9785 6.22168 75.7441 6.41504C75.5098 6.6084 75.3926 6.85449 75.3926 7.15332C75.3926 7.43457 75.5244 7.66309 75.7881 7.83887C76.0576 8.00879 76.5088 8.1582 77.1416 8.28711C77.7744 8.41016 78.3076 8.55078 78.7412 8.70898C80.083 9.20117 80.7539 10.0537 80.7539 11.2666C80.7539 12.1338 80.3818 12.8369 79.6377 13.376C78.8936 13.9092 77.9326 14.1758 76.7549 14.1758C75.958 14.1758 75.249 14.0352 74.6279 13.7539C74.0127 13.4668 73.5293 13.0771 73.1777 12.585C72.8262 12.0869 72.6504 11.5508 72.6504 10.9766H75.0586C75.082 11.4277 75.249 11.7734 75.5596 12.0137C75.8701 12.2539 76.2861 12.374 76.8076 12.374C77.2939 12.374 77.6602 12.2832 77.9062 12.1016C78.1582 11.9141 78.2842 11.6709 78.2842 11.3721ZM82.002 9.15723C82.002 8.21387 82.1836 7.37305 82.5469 6.63477C82.9102 5.89648 83.4316 5.3252 84.1113 4.9209C84.7969 4.5166 85.5908 4.31445 86.4932 4.31445C87.7764 4.31445 88.8223 4.70703 89.6309 5.49219C90.4453 6.27734 90.8994 7.34375 90.9932 8.69141L91.0107 9.3418C91.0107 10.8008 90.6035 11.9727 89.7891 12.8574C88.9746 13.7363 87.8818 14.1758 86.5107 14.1758C85.1396 14.1758 84.0439 13.7363 83.2236 12.8574C82.4092 11.9785 82.002 10.7832 82.002 9.27148V9.15723ZM84.542 9.3418C84.542 10.2441 84.7119 10.9355 85.0518 11.416C85.3916 11.8906 85.8779 12.1279 86.5107 12.1279C87.126 12.1279 87.6064 11.8936 87.9521 11.4248C88.2979 10.9502 88.4707 10.1943 88.4707 9.15723C88.4707 8.27246 88.2979 7.58691 87.9521 7.10059C87.6064 6.61426 87.1201 6.37109 86.4932 6.37109C85.8721 6.37109 85.3916 6.61426 85.0518 7.10059C84.7119 7.58105 84.542 8.32812 84.542 9.3418ZM94.9131 4.49023L94.9922 5.58887C95.6719 4.73926 96.583 4.31445 97.7256 4.31445C98.7334 4.31445 99.4834 4.61035 99.9756 5.20215C100.468 5.79395 100.72 6.67871 100.731 7.85645V14H98.1914V7.91797C98.1914 7.37891 98.0742 6.98926 97.8398 6.74902C97.6055 6.50293 97.2158 6.37988 96.6709 6.37988C95.9561 6.37988 95.4199 6.68457 95.0625 7.29395V14H92.5225V4.49023H94.9131ZM108.176 14C108.059 13.7715 107.974 13.4873 107.921 13.1475C107.306 13.833 106.506 14.1758 105.521 14.1758C104.59 14.1758 103.816 13.9062 103.201 13.3672C102.592 12.8281 102.287 12.1484 102.287 11.3281C102.287 10.3203 102.659 9.54688 103.403 9.00781C104.153 8.46875 105.234 8.19629 106.646 8.19043H107.815V7.64551C107.815 7.20605 107.701 6.85449 107.473 6.59082C107.25 6.32715 106.896 6.19531 106.409 6.19531C105.981 6.19531 105.645 6.29785 105.398 6.50293C105.158 6.70801 105.038 6.98926 105.038 7.34668H102.498C102.498 6.7959 102.668 6.28613 103.008 5.81738C103.348 5.34863 103.828 4.98242 104.449 4.71875C105.07 4.44922 105.768 4.31445 106.541 4.31445C107.713 4.31445 108.642 4.61035 109.327 5.20215C110.019 5.78809 110.364 6.61426 110.364 7.68066V11.8027C110.37 12.7051 110.496 13.3877 110.742 13.8506V14H108.176ZM106.075 12.2334C106.45 12.2334 106.796 12.1514 107.112 11.9873C107.429 11.8174 107.663 11.5918 107.815 11.3105V9.67578H106.866C105.595 9.67578 104.918 10.1152 104.836 10.9941L104.827 11.1436C104.827 11.46 104.938 11.7207 105.161 11.9258C105.384 12.1309 105.688 12.2334 106.075 12.2334ZM114.996 14H112.447V0.5H114.996V14ZM121.746 14V1.20312H126.229C127.781 1.20312 128.959 1.50195 129.762 2.09961C130.564 2.69141 130.966 3.56152 130.966 4.70996C130.966 5.33691 130.805 5.89062 130.482 6.37109C130.16 6.8457 129.712 7.19434 129.138 7.41699C129.794 7.58105 130.31 7.91211 130.685 8.41016C131.065 8.9082 131.256 9.51758 131.256 10.2383C131.256 11.4688 130.863 12.4004 130.078 13.0332C129.293 13.666 128.174 13.9883 126.721 14H121.746ZM124.383 8.42773V11.8818H126.642C127.263 11.8818 127.746 11.7354 128.092 11.4424C128.443 11.1436 128.619 10.7334 128.619 10.2119C128.619 9.04004 128.013 8.44531 126.8 8.42773H124.383ZM124.383 6.56445H126.334C127.664 6.54102 128.329 6.01074 128.329 4.97363C128.329 4.39355 128.159 3.97754 127.819 3.72559C127.485 3.46777 126.955 3.33887 126.229 3.33887H124.383V6.56445ZM135.756 14H133.207V0.5H135.756V14ZM137.461 9.15723C137.461 8.21387 137.643 7.37305 138.006 6.63477C138.369 5.89648 138.891 5.3252 139.57 4.9209C140.256 4.5166 141.05 4.31445 141.952 4.31445C143.235 4.31445 144.281 4.70703 145.09 5.49219C145.904 6.27734 146.358 7.34375 146.452 8.69141L146.47 9.3418C146.47 10.8008 146.062 11.9727 145.248 12.8574C144.434 13.7363 143.341 14.1758 141.97 14.1758C140.599 14.1758 139.503 13.7363 138.683 12.8574C137.868 11.9785 137.461 10.7832 137.461 9.27148V9.15723ZM140.001 9.3418C140.001 10.2441 140.171 10.9355 140.511 11.416C140.851 11.8906 141.337 12.1279 141.97 12.1279C142.585 12.1279 143.065 11.8936 143.411 11.4248C143.757 10.9502 143.93 10.1943 143.93 9.15723C143.93 8.27246 143.757 7.58691 143.411 7.10059C143.065 6.61426 142.579 6.37109 141.952 6.37109C141.331 6.37109 140.851 6.61426 140.511 7.10059C140.171 7.58105 140.001 8.32812 140.001 9.3418ZM147.665 9.1748C147.665 7.71582 148.011 6.54102 148.702 5.65039C149.399 4.75977 150.337 4.31445 151.515 4.31445C152.558 4.31445 153.369 4.67188 153.949 5.38672L154.055 4.49023H156.357V13.6836C156.357 14.5156 156.167 15.2393 155.786 15.8545C155.411 16.4697 154.881 16.9385 154.195 17.2607C153.51 17.583 152.707 17.7441 151.787 17.7441C151.09 17.7441 150.41 17.6035 149.748 17.3223C149.086 17.0469 148.585 16.6895 148.245 16.25L149.37 14.7031C150.003 15.4121 150.771 15.7666 151.673 15.7666C152.347 15.7666 152.871 15.585 153.246 15.2217C153.621 14.8643 153.809 14.3545 153.809 13.6924V13.1826C153.223 13.8447 152.452 14.1758 151.497 14.1758C150.354 14.1758 149.429 13.7305 148.72 12.8398C148.017 11.9434 147.665 10.7568 147.665 9.28027V9.1748ZM150.205 9.35938C150.205 10.2207 150.378 10.8975 150.724 11.3896C151.069 11.876 151.544 12.1191 152.147 12.1191C152.921 12.1191 153.475 11.8291 153.809 11.249V7.25C153.469 6.66992 152.921 6.37988 152.165 6.37988C151.556 6.37988 151.075 6.62891 150.724 7.12695C150.378 7.625 150.205 8.36914 150.205 9.35938Z" fill="#DEDEDE"/>
</svg>
