<svg width="162" height="18" viewBox="0 0 162 18" fill="none" xmlns="http://www.w3.org/2000/svg">
<path d="M8.6366 11.3633H4.01355L3.13464 14H0.330933L5.0946 1.20312H7.53796L12.328 14H9.52429L8.6366 11.3633ZM4.72546 9.22754H7.92468L6.31628 4.4375L4.72546 9.22754ZM18.6825 1.20312H21.3192V10.0625C21.3192 10.877 21.1376 11.5977 20.7743 12.2246C20.4169 12.8457 19.91 13.3262 19.2538 13.666C18.5975 14.0059 17.8563 14.1758 17.0302 14.1758C15.6766 14.1758 14.6219 13.833 13.8661 13.1475C13.1102 12.4561 12.7323 11.4805 12.7323 10.2207H15.3866C15.3866 10.8477 15.5184 11.3105 15.7821 11.6094C16.0458 11.9082 16.4618 12.0576 17.0302 12.0576C17.5341 12.0576 17.9354 11.8848 18.2343 11.5391C18.5331 11.1934 18.6825 10.7012 18.6825 10.0625V1.20312ZM23.578 14V1.20312H27.5155C28.6405 1.20312 29.6454 1.45801 30.5302 1.96777C31.4208 2.47168 32.1151 3.19238 32.6132 4.12988C33.1112 5.06152 33.3602 6.12207 33.3602 7.31152V7.90039C33.3602 9.08984 33.1141 10.1475 32.6219 11.0732C32.1356 11.999 31.4471 12.7168 30.5565 13.2266C29.6659 13.7363 28.661 13.9941 27.5419 14H23.578ZM26.2147 3.33887V11.8818H27.4891C28.5204 11.8818 29.3085 11.5449 29.8534 10.8711C30.3983 10.1973 30.6766 9.2334 30.6884 7.97949V7.30273C30.6884 6.00195 30.4188 5.01758 29.8798 4.34961C29.3407 3.67578 28.5526 3.33887 27.5155 3.33887H26.2147ZM45.41 12.3828C44.9354 12.9512 44.2645 13.3936 43.3973 13.71C42.5302 14.0205 41.5692 14.1758 40.5145 14.1758C39.4071 14.1758 38.4344 13.9355 37.5966 13.4551C36.7645 12.9688 36.12 12.2656 35.663 11.3457C35.2118 10.4258 34.9803 9.34473 34.9686 8.10254V7.23242C34.9686 5.95508 35.1825 4.85059 35.6102 3.91895C36.0438 2.98145 36.6649 2.2666 37.4735 1.77441C38.288 1.27637 39.2401 1.02734 40.33 1.02734C41.8475 1.02734 43.0341 1.39062 43.8895 2.11719C44.745 2.83789 45.2518 3.88965 45.41 5.27246H42.8436C42.7264 4.54004 42.4657 4.00391 42.0614 3.66406C41.663 3.32422 41.1122 3.1543 40.4091 3.1543C39.5126 3.1543 38.83 3.49121 38.3612 4.16504C37.8925 4.83887 37.6552 5.84082 37.6493 7.1709V7.98828C37.6493 9.33008 37.9042 10.3438 38.4139 11.0293C38.9237 11.7148 39.6708 12.0576 40.6552 12.0576C41.6454 12.0576 42.3514 11.8467 42.7733 11.4248V9.21875H40.3739V7.27637H45.41V12.3828ZM54.6737 9.49121V14H52.037V1.20312H57.0292C57.9901 1.20312 58.8339 1.37891 59.5604 1.73047C60.2928 2.08203 60.8553 2.58301 61.2479 3.2334C61.6405 3.87793 61.8368 4.61328 61.8368 5.43945C61.8368 6.69336 61.4061 7.68359 60.5448 8.41016C59.6893 9.13086 58.5028 9.49121 56.9852 9.49121H54.6737ZM54.6737 7.35547H57.0292C57.7264 7.35547 58.2567 7.19141 58.62 6.86328C58.9891 6.53516 59.1737 6.06641 59.1737 5.45703C59.1737 4.83008 58.9891 4.32324 58.62 3.93652C58.2509 3.5498 57.7411 3.35059 57.0907 3.33887H54.6737V7.35547ZM67.743 14.1758C66.3485 14.1758 65.2118 13.748 64.3329 12.8926C63.4598 12.0371 63.0233 10.8975 63.0233 9.47363V9.22754C63.0233 8.27246 63.2079 7.41992 63.577 6.66992C63.9462 5.91406 64.4677 5.33398 65.1415 4.92969C65.8212 4.51953 66.5946 4.31445 67.4618 4.31445C68.7626 4.31445 69.785 4.72461 70.5292 5.54492C71.2792 6.36523 71.6542 7.52832 71.6542 9.03418V10.0713H65.5985C65.6805 10.6924 65.9266 11.1904 66.3368 11.5654C66.7528 11.9404 67.2772 12.1279 67.91 12.1279C68.8885 12.1279 69.6532 11.7734 70.204 11.0645L71.452 12.4619C71.0712 13.001 70.5555 13.4229 69.9052 13.7275C69.2548 14.0264 68.5341 14.1758 67.743 14.1758ZM67.453 6.37109C66.9491 6.37109 66.5389 6.54102 66.2225 6.88086C65.912 7.2207 65.7128 7.70703 65.6249 8.33984H69.1581V8.1377C69.1464 7.5752 68.994 7.1416 68.701 6.83691C68.4081 6.52637 67.9921 6.37109 67.453 6.37109ZM78.4481 6.87207C78.1024 6.8252 77.7977 6.80176 77.5341 6.80176C76.5731 6.80176 75.9432 7.12695 75.6444 7.77734V14H73.1044V4.49023H75.5038L75.5741 5.62402C76.0839 4.75098 76.7899 4.31445 77.6923 4.31445C77.9735 4.31445 78.2372 4.35254 78.4833 4.42871L78.4481 6.87207ZM84.829 11.3721C84.829 11.0615 84.6737 10.8184 84.3632 10.6426C84.0585 10.4609 83.5663 10.2998 82.8866 10.1592C80.6249 9.68457 79.494 8.72363 79.494 7.27637C79.494 6.43262 79.8427 5.72949 80.5399 5.16699C81.243 4.59863 82.16 4.31445 83.2909 4.31445C84.4979 4.31445 85.4618 4.59863 86.1825 5.16699C86.9091 5.73535 87.2723 6.47363 87.2723 7.38184H84.7323C84.7323 7.01855 84.6151 6.71973 84.3807 6.48535C84.1464 6.24512 83.7802 6.125 83.2821 6.125C82.8544 6.125 82.5233 6.22168 82.2889 6.41504C82.0546 6.6084 81.9374 6.85449 81.9374 7.15332C81.9374 7.43457 82.0692 7.66309 82.3329 7.83887C82.6024 8.00879 83.0536 8.1582 83.6864 8.28711C84.3192 8.41016 84.8524 8.55078 85.286 8.70898C86.6278 9.20117 87.2987 10.0537 87.2987 11.2666C87.2987 12.1338 86.9266 12.8369 86.1825 13.376C85.4384 13.9092 84.4774 14.1758 83.2997 14.1758C82.5028 14.1758 81.7938 14.0352 81.1727 13.7539C80.5575 13.4668 80.0741 13.0771 79.7225 12.585C79.371 12.0869 79.1952 11.5508 79.1952 10.9766H81.6034C81.6268 11.4277 81.7938 11.7734 82.1044 12.0137C82.4149 12.2539 82.8309 12.374 83.3524 12.374C83.8387 12.374 84.205 12.2832 84.451 12.1016C84.703 11.9141 84.829 11.6709 84.829 11.3721ZM88.5468 9.15723C88.5468 8.21387 88.7284 7.37305 89.0917 6.63477C89.455 5.89648 89.9764 5.3252 90.6561 4.9209C91.3417 4.5166 92.1356 4.31445 93.038 4.31445C94.3212 4.31445 95.3671 4.70703 96.1757 5.49219C96.9901 6.27734 97.4442 7.34375 97.538 8.69141L97.5555 9.3418C97.5555 10.8008 97.1483 11.9727 96.3339 12.8574C95.5194 13.7363 94.4266 14.1758 93.0555 14.1758C91.6844 14.1758 90.5887 13.7363 89.7684 12.8574C88.954 11.9785 88.5468 10.7832 88.5468 9.27148V9.15723ZM91.0868 9.3418C91.0868 10.2441 91.2567 10.9355 91.5966 11.416C91.9364 11.8906 92.4227 12.1279 93.0555 12.1279C93.6708 12.1279 94.1512 11.8936 94.4969 11.4248C94.8427 10.9502 95.0155 10.1943 95.0155 9.15723C95.0155 8.27246 94.8427 7.58691 94.4969 7.10059C94.1512 6.61426 93.6649 6.37109 93.038 6.37109C92.4169 6.37109 91.9364 6.61426 91.5966 7.10059C91.2567 7.58105 91.0868 8.32812 91.0868 9.3418ZM101.458 4.49023L101.537 5.58887C102.217 4.73926 103.128 4.31445 104.27 4.31445C105.278 4.31445 106.028 4.61035 106.52 5.20215C107.013 5.79395 107.265 6.67871 107.276 7.85645V14H104.736V7.91797C104.736 7.37891 104.619 6.98926 104.385 6.74902C104.15 6.50293 103.761 6.37988 103.216 6.37988C102.501 6.37988 101.965 6.68457 101.607 7.29395V14H99.0673V4.49023H101.458ZM114.721 14C114.603 13.7715 114.518 13.4873 114.466 13.1475C113.85 13.833 113.051 14.1758 112.066 14.1758C111.135 14.1758 110.361 13.9062 109.746 13.3672C109.137 12.8281 108.832 12.1484 108.832 11.3281C108.832 10.3203 109.204 9.54688 109.948 9.00781C110.698 8.46875 111.779 8.19629 113.191 8.19043H114.36V7.64551C114.36 7.20605 114.246 6.85449 114.017 6.59082C113.795 6.32715 113.44 6.19531 112.954 6.19531C112.526 6.19531 112.189 6.29785 111.943 6.50293C111.703 6.70801 111.583 6.98926 111.583 7.34668H109.043C109.043 6.7959 109.213 6.28613 109.553 5.81738C109.892 5.34863 110.373 4.98242 110.994 4.71875C111.615 4.44922 112.312 4.31445 113.086 4.31445C114.258 4.31445 115.186 4.61035 115.872 5.20215C116.563 5.78809 116.909 6.61426 116.909 7.68066V11.8027C116.915 12.7051 117.041 13.3877 117.287 13.8506V14H114.721ZM112.62 12.2334C112.995 12.2334 113.341 12.1514 113.657 11.9873C113.974 11.8174 114.208 11.5918 114.36 11.3105V9.67578H113.411C112.14 9.67578 111.463 10.1152 111.381 10.9941L111.372 11.1436C111.372 11.46 111.483 11.7207 111.706 11.9258C111.929 12.1309 112.233 12.2334 112.62 12.2334ZM121.541 14H118.992V0.5H121.541V14ZM136.693 9.33301C136.693 10.8564 136.368 12.0459 135.718 12.9014C135.067 13.751 134.159 14.1758 132.993 14.1758C131.962 14.1758 131.139 13.7803 130.523 12.9893L130.409 14H128.124V0.5H130.664V5.34277C131.25 4.65723 132.02 4.31445 132.975 4.31445C134.136 4.31445 135.044 4.74219 135.7 5.59766C136.362 6.44727 136.693 7.64551 136.693 9.19238V9.33301ZM134.153 9.14844C134.153 8.1875 134.001 7.4873 133.696 7.04785C133.391 6.60254 132.937 6.37988 132.334 6.37988C131.525 6.37988 130.969 6.71094 130.664 7.37305V11.126C130.974 11.7939 131.537 12.1279 132.351 12.1279C133.172 12.1279 133.711 11.7236 133.969 10.915C134.092 10.5283 134.153 9.93945 134.153 9.14844ZM140.947 14H138.398V0.5H140.947V14ZM142.652 9.15723C142.652 8.21387 142.834 7.37305 143.197 6.63477C143.56 5.89648 144.082 5.3252 144.762 4.9209C145.447 4.5166 146.241 4.31445 147.143 4.31445C148.427 4.31445 149.473 4.70703 150.281 5.49219C151.096 6.27734 151.55 7.34375 151.643 8.69141L151.661 9.3418C151.661 10.8008 151.254 11.9727 150.439 12.8574C149.625 13.7363 148.532 14.1758 147.161 14.1758C145.79 14.1758 144.694 13.7363 143.874 12.8574C143.059 11.9785 142.652 10.7832 142.652 9.27148V9.15723ZM145.192 9.3418C145.192 10.2441 145.362 10.9355 145.702 11.416C146.042 11.8906 146.528 12.1279 147.161 12.1279C147.776 12.1279 148.257 11.8936 148.602 11.4248C148.948 10.9502 149.121 10.1943 149.121 9.15723C149.121 8.27246 148.948 7.58691 148.602 7.10059C148.257 6.61426 147.77 6.37109 147.143 6.37109C146.522 6.37109 146.042 6.61426 145.702 7.10059C145.362 7.58105 145.192 8.32812 145.192 9.3418ZM152.856 9.1748C152.856 7.71582 153.202 6.54102 153.893 5.65039C154.591 4.75977 155.528 4.31445 156.706 4.31445C157.749 4.31445 158.56 4.67188 159.141 5.38672L159.246 4.49023H161.549V13.6836C161.549 14.5156 161.358 15.2393 160.977 15.8545C160.602 16.4697 160.072 16.9385 159.387 17.2607C158.701 17.583 157.898 17.7441 156.978 17.7441C156.281 17.7441 155.601 17.6035 154.939 17.3223C154.277 17.0469 153.776 16.6895 153.436 16.25L154.561 14.7031C155.194 15.4121 155.962 15.7666 156.864 15.7666C157.538 15.7666 158.062 15.585 158.437 15.2217C158.812 14.8643 159 14.3545 159 13.6924V13.1826C158.414 13.8447 157.643 14.1758 156.688 14.1758C155.546 14.1758 154.62 13.7305 153.911 12.8398C153.208 11.9434 152.856 10.7568 152.856 9.28027V9.1748ZM155.396 9.35938C155.396 10.2207 155.569 10.8975 155.915 11.3896C156.261 11.876 156.735 12.1191 157.339 12.1191C158.112 12.1191 158.666 11.8291 159 11.249V7.25C158.66 6.66992 158.112 6.37988 157.356 6.37988C156.747 6.37988 156.266 6.62891 155.915 7.12695C155.569 7.625 155.396 8.36914 155.396 9.35938Z" fill="#DEDEDE"/>
</svg>
